{"header":{"PPQ":480,"timeSignature":[4,4],"bpm":120,"name":""},"startTime":0,"duration":9875250,"tracks":[{"startTime":"+0","duration":"+9875250","length":83,"notes":[{"name":"B4","midi":71,"time":"+0","velocity":1,"duration":1000},{"name":"A#4","midi":70,"time":"+1000","velocity":1,"duration":375},{"name":"B3","midi":59,"time":"+10125","velocity":1,"duration":125},{"name":"C#4","midi":61,"time":"+10250","velocity":1,"duration":250},{"name":"B3","midi":59,"time":"+10500","velocity":1,"duration":500},{"name":"E4","midi":64,"time":"+11000","velocity":1,"duration":250},{"name":"E4","midi":64,"time":"+11250","velocity":1,"duration":250},{"name":"D#4","midi":63,"time":"+11500","velocity":1,"duration":125},{"name":"G4","midi":67,"time":"+11625","velocity":1,"duration":250},{"name":"D#4","midi":63,"time":"+11875","velocity":1,"duration":500},{"name":"B3","midi":59,"time":"+12375","velocity":1,"duration":250},{"name":"C#4","midi":61,"time":"+12625","velocity":1,"duration":2000},{"name":"F#4","midi":66,"time":"+1375","velocity":1,"duration":2000},{"name":"B3","midi":59,"time":"+14625","velocity":1,"duration":125},{"name":"E4","midi":64,"time":"+14750","velocity":1,"duration":500},{"name":"A4","midi":69,"time":"+15250","velocity":1,"duration":250},{"name":"G4","midi":67,"time":"+15500","velocity":1,"duration":500},{"name":"D#4","midi":63,"time":"+16000","velocity":1,"duration":125},{"name":"C#4","midi":61,"time":"+16125","velocity":1,"duration":125},{"name":"F4","midi":65,"time":"+16250","velocity":1,"duration":250},{"name":"E4","midi":64,"time":"+16500","velocity":1,"duration":500},{"name":"G#4","midi":68,"time":"+17000","velocity":1,"duration":250},{"name":"C5","midi":72,"time":"+17250","velocity":1,"duration":500},{"name":"G#4","midi":68,"time":"+17750","velocity":1,"duration":250},{"name":"F4","midi":65,"time":"+18000","velocity":1,"duration":125},{"name":"E4","midi":64,"time":"+18125","velocity":1,"duration":250},{"name":"G#4","midi":68,"time":"+18375","velocity":1,"duration":500},{"name":"C5","midi":72,"time":"+18875","velocity":1,"duration":250},{"name":"G4","midi":67,"time":"+19125","velocity":1,"duration":500},{"name":"E4","midi":64,"time":"+19625","velocity":1,"duration":250},{"name":"B3","midi":59,"time":"+19875","velocity":1,"duration":125},{"name":"G3","midi":55,"time":"+20000","velocity":1,"duration":250},{"name":"C#4","midi":61,"time":"+20250","velocity":1,"duration":500},{"name":"A#3","midi":58,"time":"+20750","velocity":1,"duration":250},{"name":"G#3","midi":56,"time":"+21000","velocity":1,"duration":500},{"name":"D#3","midi":51,"time":"+21500","velocity":1,"duration":250},{"name":"D3","midi":50,"time":"+21750","velocity":1,"duration":500},{"name":"F3","midi":53,"time":"+22250","velocity":1,"duration":250},{"name":"G#3","midi":56,"time":"+22500","velocity":1,"duration":500},{"name":"A3","midi":57,"time":"+23000","velocity":1,"duration":250},{"name":"G3","midi":55,"time":"+23250","velocity":1,"duration":500},{"name":"D#3","midi":51,"time":"+23750","velocity":1,"duration":250},{"name":"C#3","midi":49,"time":"+24000","velocity":1,"duration":500},{"name":"F3","midi":53,"time":"+24500","velocity":1,"duration":250},{"name":"E3","midi":52,"time":"+24750","velocity":1,"duration":500},{"name":"G#3","midi":56,"time":"+25250","velocity":1,"duration":250},{"name":"C4","midi":60,"time":"+25500","velocity":1,"duration":500},{"name":"G#3","midi":56,"time":"+26000","velocity":1,"duration":250},{"name":"F3","midi":53,"time":"+26250","velocity":1,"duration":500},{"name":"B3","midi":59,"time":"+26750","velocity":1,"duration":250},{"name":"D4","midi":62,"time":"+27000","velocity":1,"duration":500},{"name":"C#4","midi":61,"time":"+27500","velocity":1,"duration":250},{"name":"E4","midi":64,"time":"+27750","velocity":1,"duration":500},{"name":"B3","midi":59,"time":"+28250","velocity":1,"duration":250},{"name":"G3","midi":55,"time":"+28500","velocity":1,"duration":500},{"name":"D#3","midi":51,"time":"+29000","velocity":1,"duration":250},{"name":"C#3","midi":49,"time":"+29250","velocity":1,"duration":500},{"name":"F3","midi":53,"time":"+29750","velocity":1,"duration":250},{"name":"E3","midi":52,"time":"+30000","velocity":1,"duration":500},{"name":"A#3","midi":58,"time":"+30500","velocity":1,"duration":250},{"name":"G3","midi":55,"time":"+30750","velocity":1,"duration":500},{"name":"F3","midi":53,"time":"+31250","velocity":1,"duration":250},{"name":"F#3","midi":54,"time":"+31500","velocity":1,"duration":500},{"name":"C4","midi":60,"time":"+3375","velocity":1,"duration":125},{"name":"C#4","midi":61,"time":"+3500","velocity":1,"duration":250},{"name":"D#4","midi":63,"time":"+3750","velocity":1,"duration":500},{"name":"A#3","midi":58,"time":"+4250","velocity":1,"duration":250},{"name":"G#3","midi":56,"time":"+4500","velocity":1,"duration":500},{"name":"D#3","midi":51,"time":"+5000","velocity":1,"duration":250},{"name":"G#3","midi":56,"time":"+5250","velocity":1,"duration":500},{"name":"C4","midi":60,"time":"+5750","velocity":1,"duration":250},{"name":"G#3","midi":56,"time":"+6000","velocity":1,"duration":125},{"name":"F3","midi":53,"time":"+6125","velocity":1,"duration":250},{"name":"A3","midi":57,"time":"+6375","velocity":1,"duration":500},{"name":"E3","midi":52,"time":"+6875","velocity":1,"duration":250},{"name":"B3","midi":59,"time":"+7125","velocity":1,"duration":500},{"name":"G3","midi":55,"time":"+7625","velocity":1,"duration":250},{"name":"D#3","midi":51,"time":"+7875","velocity":1,"duration":500},{"name":"C#3","midi":49,"time":"+8375","velocity":1,"duration":250},{"name":"D#3","midi":51,"time":"+8625","velocity":1,"duration":500},{"name":"A#3","midi":58,"time":"+9125","velocity":1,"duration":250},{"name":"G#3","midi":56,"time":"+9375","velocity":1,"duration":500},{"name":"D#3","midi":51,"time":"+9875","velocity":1,"duration":250}],"controlChanges":{},"instrumentNumber":32,"instrument":"acoustic bass","instrumentFamily":"bass","channelNumber":2,"isPercussion":false}]}